<?xml version="1.0" encoding="utf-8"?>
<!-- Generator: Adobe Illustrator 18.0.0, SVG Export Plug-In . SVG Version: 6.00 Build 0)  -->
<!DOCTYPE svg PUBLIC "-//W3C//DTD SVG 1.1//EN" "http://www.w3.org/Graphics/SVG/1.1/DTD/svg11.dtd">
<svg version="1.1" id="Слой_1" xmlns="http://www.w3.org/2000/svg" xmlns:xlink="http://www.w3.org/1999/xlink" x="0px" y="0px"
	 width="10px" height="10px" viewBox="0 0 10 10" enable-background="new 0 0 10 10" xml:space="preserve">
<g>
	<g>
		<path fill="#282119" d="M8.8,1.1C8.5,0.9,8.1,1,7.9,1.2L4,7.3L2,4.2C1.8,4,1.4,4,1.2,4.3c-0.2,0.2-0.2,0.6,0,0.8l2.1,3.4
			c0,0.1,0.1,0.2,0.2,0.3C3.7,9,3.8,9,3.9,9c0.1,0,0.3-0.1,0.4-0.2c0,0,0.1,0,0.1-0.1c0,0,0,0,0,0c0,0,0,0,0,0L8.9,2
			C9.1,1.7,9,1.3,8.8,1.1z"/>
	</g>
</g>
</svg>
