<?xml version="1.0" encoding="utf-8"?>
<!-- Generator: Adobe Illustrator 18.0.0, SVG Export Plug-In . SVG Version: 6.00 Build 0)  -->
<!DOCTYPE svg PUBLIC "-//W3C//DTD SVG 1.1//EN" "http://www.w3.org/Graphics/SVG/1.1/DTD/svg11.dtd">
<svg version="1.1" id="Слой_1" xmlns="http://www.w3.org/2000/svg" xmlns:xlink="http://www.w3.org/1999/xlink" x="0px" y="0px"
	 width="15.6px" height="19.1px" viewBox="0 0 15.6 19.1" enable-background="new 0 0 15.6 19.1" xml:space="preserve">
<path fill="#626262" d="M14.5,10.1c-0.7-0.8-1.7-1.3-2.9-1.5V8.5c0.8-0.3,1.5-0.9,2-1.6c0.5-0.7,0.7-1.6,0.7-2.5
	c0-0.8-0.2-1.5-0.5-2.1c-0.3-0.6-0.9-1.1-1.6-1.5c-0.6-0.3-1.3-0.6-2.1-0.7C9.4,0.1,8.3,0,6.9,0H0v19.1h7.8c1.4,0,2.5-0.1,3.3-0.4
	c0.9-0.2,1.7-0.6,2.4-1.2c0.6-0.5,1.1-1.1,1.5-1.8c0.4-0.7,0.6-1.5,0.6-2.5C15.6,11.9,15.2,10.9,14.5,10.1z M9.1,6.5
	C9,6.8,8.7,7.1,8.3,7.2c-0.4,0.2-0.7,0.3-1,0.3c-0.3,0-0.9,0-1.8,0H4.9v-4h0.3c0.9,0,1.5,0,2,0c0.4,0,0.8,0.1,1.1,0.2
	c0.3,0.1,0.6,0.4,0.8,0.7c0.2,0.3,0.2,0.6,0.2,0.9C9.3,5.8,9.3,6.2,9.1,6.5z M10.3,14.4c-0.2,0.4-0.5,0.6-1,0.8
	c-0.5,0.2-1,0.3-1.5,0.3c-0.5,0-1.4,0-2.6,0H4.9v-4.8h0.9c0.9,0,1.6,0,2.1,0c0.5,0,0.9,0.1,1.2,0.2c0.5,0.2,0.9,0.4,1.1,0.8
	c0.2,0.3,0.4,0.8,0.4,1.4C10.6,13.6,10.5,14,10.3,14.4z"/>
</svg>
