<?xml version="1.0" encoding="utf-8"?>
<!-- Generator: Adobe Illustrator 18.0.0, SVG Export Plug-In . SVG Version: 6.00 Build 0)  -->
<!DOCTYPE svg PUBLIC "-//W3C//DTD SVG 1.1//EN" "http://www.w3.org/Graphics/SVG/1.1/DTD/svg11.dtd">
<svg version="1.1" id="Слой_1" xmlns="http://www.w3.org/2000/svg" xmlns:xlink="http://www.w3.org/1999/xlink" x="0px" y="0px"
	 width="14px" height="24px" viewBox="0 0 14 24" enable-background="new 0 0 14 24" xml:space="preserve">
<g>
	<g>
		<path fill="#626262" d="M7,12.4c3.4,0,6.2-2.8,6.2-6.2C13.2,2.8,10.4,0,7,0C3.6,0,0.8,2.8,0.8,6.2C0.8,9.6,3.6,12.4,7,12.4z
			 M7,3.6c1.4,0,2.6,1.1,2.6,2.6c0,1.4-1.2,2.6-2.6,2.6c-1.4,0-2.6-1.2-2.6-2.6C4.4,4.8,5.6,3.6,7,3.6z M9.5,17.4
			c1.3-0.3,2.5-0.8,3.6-1.5c0.9-0.5,1.1-1.7,0.6-2.5c-0.5-0.8-1.7-1.1-2.5-0.6c-2.6,1.6-5.8,1.6-8.4,0c-0.9-0.5-2-0.3-2.5,0.6
			c-0.5,0.8-0.3,2,0.6,2.5c1.1,0.7,2.4,1.2,3.6,1.5L1,20.9c-0.7,0.7-0.7,1.9,0,2.6C1.3,23.8,1.8,24,2.3,24c0.5,0,0.9-0.2,1.3-0.5
			L7,20.1l3.4,3.4c0.7,0.7,1.9,0.7,2.6,0c0.7-0.7,0.7-1.9,0-2.6L9.5,17.4z"/>
	</g>
</g>
</svg>
