<?xml version="1.0" encoding="utf-8"?>
<!-- Generator: Adobe Illustrator 18.0.0, SVG Export Plug-In . SVG Version: 6.00 Build 0)  -->
<!DOCTYPE svg PUBLIC "-//W3C//DTD SVG 1.1//EN" "http://www.w3.org/Graphics/SVG/1.1/DTD/svg11.dtd">
<svg version="1.1" id="Слой_1" xmlns="http://www.w3.org/2000/svg" xmlns:xlink="http://www.w3.org/1999/xlink" x="0px" y="0px"
	 width="16px" height="16px" viewBox="0 0 16 16" enable-background="new 0 0 16 16" xml:space="preserve">
<path fill="#282119" d="M11.3,2C9.8,2,8.5,2.9,8,4.1C7.5,2.9,6.2,2,4.7,2c-2,0-3.3,1.8-3.3,3.6c0,4.3,6.1,8.1,6.4,8.3L8,14l0.1-0.1
	c0.3-0.2,6.4-4,6.4-8.3C14.5,3.8,13.3,2,11.3,2z M11,3.5c1.3,0,2.1,1.2,2.1,2.4c0,0.1-0.1,0.2-0.2,0.2c-0.1,0-0.2-0.1-0.2-0.2
	c0-0.9-0.6-1.9-1.7-1.9c-0.1,0-0.2-0.1-0.2-0.2C10.8,3.6,10.9,3.5,11,3.5z"/>
</svg>
