<?xml version="1.0" encoding="utf-8"?>
<!-- Generator: Adobe Illustrator 18.0.0, SVG Export Plug-In . SVG Version: 6.00 Build 0)  -->
<!DOCTYPE svg PUBLIC "-//W3C//DTD SVG 1.1//EN" "http://www.w3.org/Graphics/SVG/1.1/DTD/svg11.dtd">
<svg version="1.1" id="Слой_1" xmlns="http://www.w3.org/2000/svg" xmlns:xlink="http://www.w3.org/1999/xlink" x="0px" y="0px"
	 width="16px" height="16px" viewBox="0 0 16 16" enable-background="new 0 0 16 16" xml:space="preserve">
<g>
	<g>
		<path fill="#FFFFFF" d="M5.2,10.3l7.7,0c0.3,0,0.5-0.2,0.6-0.5L15,3.4c0-0.2,0-0.4-0.1-0.5c-0.1-0.2-0.3-0.3-0.5-0.3H3.7L3.3,1
			H1.2C1.1,1,1,1.1,1,1.2c0,0.1,0.1,0.2,0.2,0.2h1.7l2,8.5c-0.6,0.1-1.1,0.7-1.1,1.4c0,0.5,0.3,0.9,0.6,1.2
			c-0.4,0.2-0.6,0.7-0.6,1.2c0,0.8,0.6,1.4,1.4,1.4c0.7,0,1.4-0.6,1.4-1.4c0-0.4-0.1-0.7-0.4-0.9h6c-0.2,0.2-0.4,0.6-0.4,0.9
			c0,0.8,0.6,1.4,1.4,1.4c0.7,0,1.4-0.6,1.4-1.4c0-0.8-0.6-1.4-1.4-1.4h-8c0,0,0,0,0,0c-0.5,0-0.9-0.4-0.9-0.9
			C4.3,10.8,4.7,10.4,5.2,10.3z M5.3,14.6c-0.5,0-0.9-0.4-0.9-0.9c0-0.5,0.4-0.9,0.9-0.9c0,0,0,0,0,0c0,0,0,0,0,0
			c0.5,0,0.9,0.4,0.9,0.9C6.2,14.1,5.8,14.6,5.3,14.6z M14.2,13.6c0,0.5-0.4,0.9-0.9,0.9c-0.5,0-0.9-0.4-0.9-0.9
			c0-0.5,0.4-0.9,0.9-0.9C13.8,12.7,14.2,13.1,14.2,13.6z"/>
	</g>
</g>
</svg>
