<?xml version="1.0" encoding="utf-8"?>
<!-- Generator: Adobe Illustrator 18.0.0, SVG Export Plug-In . SVG Version: 6.00 Build 0)  -->
<!DOCTYPE svg PUBLIC "-//W3C//DTD SVG 1.1//EN" "http://www.w3.org/Graphics/SVG/1.1/DTD/svg11.dtd">
<svg version="1.1" xmlns="http://www.w3.org/2000/svg" xmlns:xlink="http://www.w3.org/1999/xlink" x="0px" y="0px" width="90px"
	 height="60px" viewBox="0 0 90 60" enable-background="new 0 0 90 60" xml:space="preserve">
<g id="Слой_1" display="none">
	<g display="inline">
		<g>
			<path fill="#222222" d="M42.9,33c0-0.7-0.7-3.2-3.7-4v-5.6c0.6,0.2,1,0.4,1.3,0.8c0.6,0.6,0.6,1.4,0.6,1.4c0,0.3,0.2,0.5,0.5,0.5
				c0.3,0,0.5-0.2,0.5-0.5c0,0,0-1.2-0.9-2.1c-0.5-0.5-1.2-0.9-2.1-1.1V20c0-0.3-0.2-0.5-0.5-0.5c-0.3,0-0.5,0.2-0.5,0.5v2.2
				c-0.3,0-0.6-0.1-1-0.1c-0.3,0-0.7,0-1,0V20c0-0.3-0.2-0.5-0.5-0.5s-0.5,0.2-0.5,0.5v2.3c-0.9,0.2-1.6,0.5-2.1,1
				c-0.9,0.9-0.9,2.1-0.9,2.9v0.1c0,1.4,0.4,2.8,3,3.3v7.1c-0.6-0.2-1.1-0.4-1.4-0.7c-0.5-0.5-0.5-1.2-0.5-1.5
				c0-0.3-0.2-0.5-0.5-0.5h0c-0.3,0-0.5,0.2-0.5,0.5c0,0.3,0,1.3,0.8,2.2c0.5,0.5,1.2,0.8,2.1,1V40c0,0.3,0.2,0.5,0.5,0.5
				s0.5-0.2,0.5-0.5v-2.1c0.3,0,0.6,0.1,1,0.1c0.3,0,0.7,0,1,0V40c0,0.3,0.2,0.5,0.5,0.5c0.3,0,0.5-0.2,0.5-0.5v-2.3
				c1.1-0.2,2-0.6,2.6-1.3c1.1-1.1,1.1-2.6,1.1-3.3L42.9,33z M35.2,28.6c-2-0.4-2-1.5-2-2.3v-0.1c0-0.8,0-1.6,0.6-2.2
				c0.3-0.3,0.8-0.5,1.4-0.7V28.6z M38.2,36.9c-0.3,0-0.6,0.1-1,0.1c-0.4,0-0.7,0-1-0.1v-7.1c0.3,0,0.6,0,1,0c0.4,0,0.7,0,1,0.1
				V36.9z M38.2,28.8c-0.3,0-0.6-0.1-1-0.1c-0.4,0-0.7,0-1,0v-5.6c0.3,0,0.6,0,1,0c0.4,0,0.7,0,1,0.1V28.8z M41.1,35.8
				c-0.4,0.4-1.1,0.8-1.9,0.9V30c2.5,0.8,2.7,2.9,2.7,2.9l0,0.2C41.9,33.8,42,34.9,41.1,35.8z M62.5,42.8c0-0.8,1.6-1.8,2.9-2.6
				c1.7-1.1,3.4-2.1,3.4-3.5c0-1.4-1.6-2.6-3.4-3.8c-1.4-1-3-2-2.9-2.9c0-0.8,1.5-1.8,2.9-2.7c1.7-1.1,3.3-2.1,3.3-3.4
				c0.1-1.5-1.5-2.8-3.2-4.2c-1.4-1.1-2.9-2.4-2.9-3.3c0.1-0.4,1.8-2,5.9-5.1c0.3-0.3,0.5-0.7,0.3-1.1c-0.1-0.4-0.5-0.7-0.9-0.7
				H23.2c-1.2,0-2.2,1-2.2,2.2v8.2c0,0.1,0,0.1,0,0.2c0,0.1,0,0.1,0,0.2V40c0,0.1,0,0.1,0,0.2c0,0.1,0,0.1,0,0.2v8
				c0,1.2,1,2.2,2.2,2.2h45c0.3,0,0.5-0.2,0.6-0.4c0.1-0.2,0-0.5-0.2-0.7C64.7,45.7,62.6,43.3,62.5,42.8z M64.9,20.5
				c1.4,1.1,2.9,2.4,2.8,3.4c0,0.8-1.6,1.8-2.9,2.7c-1.7,1.1-3.3,2.1-3.3,3.5c0,1.4,1.6,2.6,3.4,3.8c1.4,1,3,2,2.9,2.9
				c0,0.8-1.6,1.8-2.9,2.6c-1.7,1.1-3.4,2.1-3.4,3.5c0,0.3,0.2,0.6,0.5,1.2c-7.6-0.2-13.7-6.4-13.7-14c0-7.5,6-13.7,13.4-14
				c-0.1,0.2-0.1,0.3-0.1,0.4C61.5,17.7,63.2,19,64.9,20.5z M22.1,11.7c0-0.6,0.5-1.1,1.2-1.1h7.3c0,0,0,0,0,0c0,4.8-3.7,8.7-8.5,9
				V11.7z M23.2,49.5c-0.6,0-1.2-0.5-1.2-1.1v-7.6c4.7,0.3,8.4,4.1,8.4,8.8H23.2z M31.5,49.5c-0.1-5.2-4.2-9.5-9.5-9.8V20.5
				c5.3-0.3,9.5-4.6,9.5-10c0,0,0,0,0,0h32.2l4.2,0c-3,2.3-4.5,3.6-5.3,4.4c-0.1,0-0.1,0-0.2,0c-8.3,0-15.1,6.8-15.1,15.1
				c0,8.3,6.8,15.1,15.1,15.1c0.1,0,0.2,0,0.3-0.1c1,1.2,2.5,2.7,4.6,4.7H31.5z"/>
		</g>
	</g>
</g>
<g id="Слой_2" display="none">
	<g display="inline">
		<g>
			<path fill="#222222" d="M73.3,32l-3.6-2.4l-6-7.2c-0.1-0.1-0.2-0.2-0.4-0.2H54v-8c0-0.3-0.2-0.5-0.5-0.5h-17
				c-1.3-4.2-5.2-7.3-9.8-7.3c-5.6,0-10.2,4.6-10.2,10.2c0,3.7,2,6.9,4.9,8.7v20.4v4.8c0,0.3,0.2,0.5,0.5,0.5h8.2c0.1,0,0.1,0,0.1,0
				c0.6,1.4,2.1,2.5,3.8,2.5c1.7,0,3.1-1,3.8-2.5c0,0,0.1,0,0.1,0h20.3c0.7,1.4,2.1,2.4,3.8,2.4c1.7,0,3.1-1,3.8-2.4H73
				c0.3,0,0.5-0.2,0.5-0.5v-4.8V32.4C73.5,32.3,73.4,32.1,73.3,32z M36.8,14.8H53v8v2.4v20.1H22.4V25.9c1.3,0.6,2.8,1,4.4,1
				c5.6,0,10.2-4.6,10.2-10.2C37,16,36.9,15.4,36.8,14.8z M17.5,16.7c0-5.1,4.1-9.2,9.2-9.2c5.1,0,9.2,4.1,9.2,9.2
				c0,5.1-4.1,9.2-9.2,9.2C21.7,25.9,17.5,21.7,17.5,16.7z M29.9,49.4c0,0.2,0,0.5,0.1,0.7h-7.6v-3.8h9C30.5,47,29.9,48.1,29.9,49.4
				z M34,52.5c-1.7,0-3.1-1.4-3.1-3.1c0-1.7,1.4-3.1,3.1-3.1c1.7,0,3.1,1.4,3.1,3.1C37.2,51.1,35.8,52.5,34,52.5z M58,50.1H38.1
				c0-0.2,0.1-0.5,0.1-0.7c0-1.3-0.6-2.4-1.5-3.1h16.8h5.8c-0.9,0.8-1.5,1.9-1.5,3.1C57.9,49.6,57.9,49.8,58,50.1z M62,52.5
				c-1.7,0-3.1-1.4-3.1-3.1c0-1.7,1.4-3.1,3.1-3.1c1.7,0,3.1,1.4,3.1,3.1C65.2,51.1,63.8,52.5,62,52.5z M72.5,50.1h-6.4
				c0-0.2,0.1-0.5,0.1-0.7c0-1.3-0.6-2.4-1.5-3.1h7.8V50.1z M72.5,45.2H54V25.2v-1.9h9l5.9,7.1c0,0,0.1,0.1,0.1,0.1l3.4,2.3V45.2z
				 M27.3,16.7v-4.8c0-0.3-0.2-0.5-0.5-0.5s-0.5,0.2-0.5,0.5v4.3h-4.4c-0.3,0-0.5,0.2-0.5,0.5c0,0.3,0.2,0.5,0.5,0.5h4.9
				C27,17.2,27.3,17,27.3,16.7z"/>
		</g>
	</g>
</g>
<g id="Слой_3" display="none">
	<g display="inline">
		<g>
			<path fill="#222222" d="M67.2,50V23.5c0-1.1-0.9-1.9-1.9-1.9v1c0.5,0,0.9,0.4,0.9,0.9V50H50.7l-1.8,2.3h-7.8L39.3,50H23.8V23.5
				c0-0.5,0.4-0.9,0.9-0.9v-1c-1.1,0-1.9,0.9-1.9,1.9V50h-5.3l5.7,7h43.6l5.7-7H67.2z M66.4,56H23.6l-4-5h19.2l1.8,2.3h8.8l1.8-2.3
				h19.2L66.4,56z M57.7,34.5h-6.9v1h6.9V34.5z M50.8,39.1h6.9v-1h-6.9V39.1z M50.8,42.7h6.9v-1h-6.9V42.7z M49.4,45.6h12.4V33.1h-1
				v11.5H49.4V45.6z M29.5,23.3h17.9v8.6l9.2-8.6h4.7c1.1,0,1.9-0.9,1.9-1.9V5c0-1.1-0.9-1.9-1.9-1.9H29.5c-1.1,0-1.9,0.9-1.9,1.9
				v16.4C27.5,22.5,28.4,23.3,29.5,23.3z M28.5,5C28.5,4.4,29,4,29.5,4h31.8c0.5,0,0.9,0.4,0.9,0.9v16.4c0,0.5-0.4,0.9-0.9,0.9h-5.1
				l-7.8,7.3v-7.3H29.5c-0.5,0-0.9-0.4-0.9-0.9V5z M41.1,14c0.5,0,0.9-0.4,0.9-0.9s-0.4-0.9-0.9-0.9c-0.5,0-0.9,0.4-0.9,0.9
				S40.6,14,41.1,14z M41.1,13c0.1,0,0.1,0.1,0.1,0.1c0,0.2-0.3,0.2-0.3,0C40.9,13.1,41,13,41.1,13z M44.6,14c0.5,0,0.9-0.4,0.9-0.9
				s-0.4-0.9-0.9-0.9c-0.5,0-0.9,0.4-0.9,0.9S44.2,14,44.6,14z M44.6,13c0.1,0,0.1,0.1,0.1,0.1c0,0.2-0.3,0.2-0.3,0
				C44.5,13.1,44.6,13,44.6,13z M48.2,14c0.5,0,0.9-0.4,0.9-0.9s-0.4-0.9-0.9-0.9c-0.5,0-0.9,0.4-0.9,0.9S47.7,14,48.2,14z M48.2,13
				c0.1,0,0.1,0.1,0.1,0.1c0,0.2-0.3,0.2-0.3,0C48.1,13.1,48.1,13,48.2,13z M28.6,44.4l2.5,1.7h5.8h0.7h6.6l2.5-1.7v-3.8l-5.4-3.2
				c0.9-1,1.5-2.5,1.5-4c0-3.2-2.3-5.8-5.1-5.8c-2.8,0-5.1,2.6-5.1,5.8c0,1.6,0.6,3,1.5,4.1l-5.4,3.2V44.4z M33.5,33.3
				c0-2.6,1.8-4.8,4.1-4.8c2.2,0,4.1,2.1,4.1,4.8c0,2.6-1.8,4.8-4.1,4.8C35.3,38.1,33.5,36,33.5,33.3z M29.6,41.2l5.1-3.1
				c0.8,0.6,1.8,1,2.8,1c1.1,0,2-0.4,2.9-1l5.2,3.1v2.7l-1.8,1.2h-6.3h-0.7h-5.5l-1.8-1.2V41.2z"/>
		</g>
	</g>
</g>
<g id="Слой_4" display="none">
	<g display="inline">
		<g>
			<path fill="#222222" d="M12,36.9h9.9c-0.8,1.4-1.6,2.8-2.3,4.3c-0.7,1.4-1.4,2.8-2,4.3c-0.6,1.4-1.1,2.9-1.6,4.4
				c-0.5,1.5-0.8,3-1.1,4.6h1.3c0.3-1.6,0.6-3.2,1.1-4.7c0.5-1.5,1-3,1.6-4.4c0.6-1.5,1.3-2.9,2.1-4.4c0.8-1.5,1.6-3,2.5-4.6v-0.4
				H12V36.9z M24.1,57.5h1.2l9.1-21.7h-1.3L24.1,57.5z M36.8,53.1c0-0.6,0.1-1.2,0.2-1.6c0.2-0.5,0.4-0.9,0.8-1.4
				c0.4-0.4,0.8-0.9,1.4-1.4c0.6-0.5,1.3-1,2.1-1.6c0.6-0.4,1.2-0.9,1.8-1.4c0.6-0.5,1.1-1,1.5-1.5c0.4-0.5,0.8-1.1,1-1.8
				c0.2-0.7,0.4-1.4,0.4-2.3c0-0.7-0.1-1.4-0.4-2c-0.2-0.6-0.6-1.1-1-1.5c-0.4-0.4-1-0.7-1.6-1c-0.6-0.2-1.3-0.3-2-0.3
				c-0.9,0-1.8,0.2-2.6,0.5c-0.8,0.3-1.6,0.7-2.3,1.3v1.4c0.7-0.6,1.5-1.2,2.3-1.5c0.8-0.4,1.6-0.5,2.4-0.5c1.2,0,2.2,0.3,2.9,1
				c0.7,0.7,1,1.6,1,2.9c0,0.7-0.1,1.3-0.3,1.9c-0.2,0.5-0.5,1.1-0.9,1.5c-0.4,0.5-0.8,0.9-1.3,1.3c-0.5,0.4-1,0.8-1.6,1.2
				c-0.6,0.4-1.1,0.8-1.6,1.2c-0.5,0.4-0.9,0.7-1.3,1.1c-0.4,0.3-0.7,0.7-1,1c-0.3,0.3-0.5,0.7-0.7,1.1c-0.2,0.4-0.3,0.8-0.4,1.3
				c-0.1,0.5-0.1,1-0.1,1.6v0.9h10.6v-1.1h-9.3V53.1z M58.8,35.8h-1.3c-0.4,0.9-1,1.9-1.7,3c-0.7,1.1-1.4,2.2-2.2,3.3
				c-0.8,1.1-1.6,2.2-2.5,3.3c-0.9,1.1-1.7,2.1-2.5,3v1.2h8.9v4.9h1.2v-4.9h2.9v-1.1h-2.9V35.8z M57.6,48.5h-7.6
				c0.5-0.6,1-1.2,1.6-2c0.6-0.8,1.2-1.6,1.9-2.5c0.7-0.9,1.3-1.9,2-2.9c0.7-1,1.3-2.1,2-3.2V48.5z M48.4,2.5
				C32,2.5,18.7,15.7,18.7,32h0.5v0.5h3.2v-1h-2.7c0.1-4.8,1.4-9.3,3.6-13.3l2.3,1.3l0.5-0.9l-2.3-1.3c2.4-4,5.8-7.3,9.8-9.7
				l1.3,2.3l0.9-0.5l-1.3-2.3c4-2.2,8.5-3.5,13.4-3.6v2.6h1V3.5c4.8,0.1,9.4,1.4,13.4,3.6l-1.3,2.3l0.9,0.5l1.3-2.3
				c4,2.4,7.4,5.8,9.8,9.7l-2.3,1.3l0.5,0.9l2.3-1.3c2.2,4,3.5,8.5,3.6,13.3h-2.7v1H77c-0.1,4.7-1.3,9.3-3.6,13.3l-2.3-1.3l-0.5,0.9
				l2.3,1.3c-1.1,1.9-2.5,3.6-4,5.2l0.7,0.7C75,47,78,39.7,78,32C78,15.7,64.7,2.5,48.4,2.5z M46.9,31.4l-7.8-6.6l-0.7,0.8l8.3,7
				l16.4-8.2l-0.5-0.9L46.9,31.4z"/>
		</g>
	</g>
</g>
<g id="Слой_5">
	<path fill="#222222" d="M43.7,54.5h-1.3l-1.3-0.8l-0.8-1.6l-0.9,0.2l-0.9-0.6l-0.8,0.5L36.9,49l-0.8-1l-0.7-0.2l-1.2-0.1l-1.5-1.5
		l-0.2-1.1h-3l-2.8-0.5v0.2L26,45.6l-0.4,0.6l0.1,0.2v1.5L24,47.7l-1.3-1.1l-0.4-0.4l-1-0.5l-1-0.8l-1.1-1.7l-1-0.3l-0.7-0.1
		l-1.4,1.1l-0.3-1h-0.6v1h-0.5v1l0.3,0.8l-0.4,1.5h-2.3l-0.4,0.3v0.7l-0.8,1.1v2H9v-1.3l-0.5-0.7v-0.9l-1.5-1.9l-1.2-2l-0.6-2.9
		L4.6,41L3,40.2L2.5,39l0.6-0.4l-0.4-1.2l2,0.6h0.8l0.3,1.6l0.8,1.2l0.6-0.5l1.1-0.1L9,39.8l1.1-0.5l0.3-0.3l-0.2-0.8l-0.3-0.8
		l-1-1.1l0.4-1.1l-0.3-0.6l0.8-0.9l-0.7-0.9l0.5-1.1h1.1l0.3-1l0.7-0.9l-0.9-1.9l1.9-1.5l2.3-1.8l0.3,0.5c0,0.1,0.1,0.1,0.1,0.2
		c0-0.1,0.1-0.1,0.1-0.2l0.1-0.3l2.8-0.3l0.8-1.2l1.8-1.3l1.2-1.5l0.6-1.1l1.2-0.4h2v1.5l0.6,1.5v2.9l-0.7,0.7l-0.6,0h0.6L26,26
		l0.6-0.7l1-1.5l1.1,1.2v1.2l-0.3,0.1l3.2-0.1v0.9l0.2,0.3l0.9,0.1l0.7,0.2l0.1,0.1l-0.2-0.7L32,25.1l0.1-1.7l2.5-2l1.3-0.8l1.6-0.4
		l3.1,0.2v1.4l-1.5,0.6l-1.1-0.2L37,22.4L36.1,23l-1.5,0.7L34,25l0.3,1l0.7,1.3l1.3,1.2l0.2,0.5L36.3,28l0.4-1.2l0.8-0.7l1.3-1.6
		l0.8,0.5l0.7,1.2l-0.1,0.2l0.4-0.2l0.2,0.9l0.5-0.4l0.1,0c0.3,0,0.6-0.1,0.7-0.2c0.1-0.2,0.6-1.1,0.6-1.1l0.1-0.2l1.7-0.1l0.2-1.2
		l1.9-1.2l1.6-0.3l0.5-0.5v-0.8l-0.4-0.6l-0.1-0.1l0,0v-0.1l-2.2-1.9l0.1-1.2l1-0.9h1.1v1.1l1,0.8v0.2l0,0l1.6,0.9l-0.8,0.9l1,0.5
		l1.1,0.1l1.2,0.6l0.6,1.2l-0.9,1.1l0,0.2l0.6,0l1.1-0.5H56l0.3,0.3l0.7-0.1v-0.8l1.6-1.3l0.8,1l0.6,1l0.9,0.5l0.2-0.4l0.3-0.7
		l1.4-1.2l-0.4-0.4l-0.5-1l-2.4-0.7l-1.1-1.3l1.3-0.7l1.3-0.6l1.6-1.4l1.8,0.8l-1.8,1.3l-0.8,0.7l-0.1,0.2l0.5,0.1l1,0.3l1,0.6v-1
		l1-0.2l1.4-0.1l1.2-1.4l1.1-0.7l0.9,0.3l0.2,0l0.4-1.3l1.1-1.1l0.6-0.3h-1.1l0.4-1.9l1.3-2.1l2.8-2h0.8l-0.2-0.5l0.5-1l2-1.2V7
		l1.3,0.6v1.1l-0.5,1l-0.7,0.3l-0.4,0.7l0.2,0L79,12l-0.1,0.2l0.4-0.2l2.2-0.3l0,1.3l-0.4,1l-0.2,0.2l0.2,0.5l0.9,2.2l0.8,1.6
		l-1,0.5l-0.1,0.6L81.6,21l-0.5,0.5l0.2,0.8l0.9,1.1L83,23l1.7,0.7v0.9l0.4,0.7l0.7,0.6v0.7l0.7,1v1h0.1l0.9,1.6V32l-4.4-2.3l-2.3-2
		l-0.3-1.5l-1.3-4.4v2l-1.2-0.6l-0.2,0.2l-0.2,1l0.4,1.4l1,0.4l-0.8,2.4l-1-0.3l-0.7,0.5l-0.4,1l-1.9,2l0.1,5.3L74,38.2l0.2,0
		l0.8,0.2h0.5l0.5-1.6l1.3,0.4l0.4-0.1l0.1-0.3l-1.3-2.8l3.5,2.8l0.1,0.7h0.4l2.5,1.6l-0.5,1.1l0.6,0.8l1.7,0.8l-0.5,1l-0.6,1.4
		l-0.5-0.6c-0.3-0.4-0.8-1-0.9-1.3c-0.1-0.2-1.4-1.6-2.6-2.8l-0.3-0.1l0.5,1.2l1.1,1.1l0.4,2.3l0.4,3.4l-0.3,1.7l-0.4,1.9l-1.4,0.7
		h-1.2l-1.3-1.6l0.4-1.6h0.4L78,46.8l-0.3-1l-1,1.6l-1.1,0.2l-0.9-0.6L73.3,47l-0.8,0.2l-3.2-2.4l-1.5-0.1l-1.1,1L66.5,46l0.4,0.3
		l0.1,2.1l0.4,0.7l-1.1,1.7l-1.8-0.1l-1.1,0.2l-0.9,0.7L61,52.9l-2,0l-1.6-0.7l-1.1,0.2l-1.2,0.6L54,51.7l-0.6-0.5L52.2,51l-0.4,0.5
		l0.1,1.1l-1.5,1.6l-1.8-0.8l-1-0.6l-0.8,0l-1.5,1.2L43.7,54.5z M42.6,53.5h0.9l1.3-0.4l1.5-1.3l1.5-0.1l1.2,0.8l1,0.4l0.7-0.8
		l-0.1-1.1l1.1-1.3l2.1,0.4l0.8,0.7l0.7,0.8l0.7-0.3l1.5-0.3l1.8,0.8h1.3l1.1-1l1.1-0.9l1.5-0.3l1.4,0.1l0.5-0.7L66,48.5l-0.1-1.7
		l-0.9-0.6L66,45l1.4-1.3l2.3,0.1l3.1,2.3l0.4-0.1l1.8-0.1l0.9,0.6l0.3-0.1l1.9-3l1,3.2l0.4,2.9h-0.8l-0.1,0.4l0.7,0.8h0.5l0.8-0.4
		l0.6-3l-0.4-3.2l-0.3-1.9l-1.1-1.1l-0.6-1.4l-0.8-1.5l-0.5,0.1l-0.5-0.2l-0.4,1.3l-1.5,0l-0.8-0.2l-1.3-0.1l0.5-2.1l-0.1-5.5
		l2.1-2.2l0.4-1l1.3-1l0.6,0.2l0.2-0.6l-0.6-0.3l-0.7-2l0.2-1.5l1-1l0.4,0.2v-0.7l-0.8-0.7l0.7-2.5l2,3.2l1.4,4.5l0.2,1.2l2,1.8
		l0.8,0.4l1-1V28l-0.7-1v-0.5l-0.5-0.5l-0.6-1v-0.5l-0.7-0.3l-1,0.5l-1.6-1.9L80,21.2l0.6-0.6l0.1-1.2l0.3-1.1l0.5-0.2l-0.4-0.7
		l-1-2.3l-0.4-1.3l0.6-0.4l0.2-0.5L79.6,13l-0.8,0.5l-1.6,1.3l0.4-2.3l0.3-0.5l-0.1-0.3l-0.6-0.1l-1.4-1.2l1.8-0.1L78,9.4L78.7,9
		l0.3-0.5V8.3l-1.3-0.6V7.3l-0.2,0.1l-0.2,0.4l0.5,1.4h-1.8L73.5,11l-1.1,1.8l-0.1,0.4h0.9v1.6l-1.1,0.5L71.3,16l-0.5,1.7l-1.1,0.1
		l-0.6-0.2L68.5,18l-1.3,1.5l-1.9,0.2v1.2H64l-1.1-0.6l0.3,0.7l0.9,1l-1.9,1.8L62,24.4l-0.8,1.2l-2-1l-0.8-1.3L58,23.6v1.1l-2,0.3
		l-0.4-0.4H55l-1,0.5l-2.1-0.1l0.4-1.7l0.6-0.7l-0.2-0.4l-0.8-0.4l-1.1-0.1l-0.6-0.3l-0.4,0.3v0.6l-1.1,1l-1.8,0.3l-1.3,0.9
		l-0.3,1.5l-1.9,0.1c-0.1,0.3-0.4,0.7-0.5,0.8c-0.2,0.4-0.8,0.6-1.3,0.7l-0.1,0l1,2.3l-2.5-1.7c0,0.2-0.1,0.3-0.1,0.5
		c0.4,0.7,0.9,1.5,1,1.6c0.4,0.3,0.4,0.8,0.2,1.2l0.6,1.9l-2.1-0.9v-1l-0.1-0.2l-0.2,0.5l-1,1.2l-1.1,0.6l-1.2-0.5l-0.6-1.6h1.4
		l-0.9-1.5L35.5,29l-0.9-0.9l-0.6,1.5l-1-1l-0.4-0.1l-1.3-0.1l-0.6-0.9v-0.2l-2.2,0.1l-0.4,0.4l-1.2-0.1l-0.2-0.9l-0.8,0.9l-0.6-1
		h-1l-0.3,0.8h-1.2l-0.1-0.3l-0.1,0.3l-1.2-0.2l-0.5-1L21,25l0.5-0.9l0.7-0.4l0.3-1.4h1.2l0.2,1.1l0.5,0.9l0.5,0.5l0.5,0l0.1-0.1
		v-2.4l-0.6-1.5V20h-0.9l-0.6,0.2l-0.5,0.9l-1.4,1.7l-1.8,1.3l-0.8,1.4l-2.7,0.3c-0.3,0.7-0.5,0.8-0.6,0.8l-0.1,0.1l-0.1,0
		c-0.2,0-0.4-0.1-0.7-0.6L12,28.2l0.8,1.8l-0.9,1.3l-0.3,1.5h-1.1l0.8,0.9l-0.9,1l0.2,0.5l-0.4,0.9L11,37l0.3,1l0.3,1.4l-1,0.8
		l-1.2,0.5l-1,0.5l-0.9,0.1l-1.2,0.9l0.4,1.9l1.1,1.7l0.5,0.7L9.4,48v0.9l0.5,0.7v0.7h0.2v-1.3l0.8-1.1v-0.9l1.1-0.8h1.8l0.1-0.4
		l-0.2-0.8v-2.1h0.5v-1h2.3l0.1,0.4l0.6-0.5l1.2,0.2l1.4,0.4l1.3,1.9l0.8,0.6l1.1,0.5l0.5,0.6l1,0.9l0.2,0v-0.2l-1-2.4l1.5,0.8
		l0.4-0.6v-1.5l1.3,0.7l2.6,0.5l3.7,0l0.3,1.6l1.1,1.1l1,0.1l1,0.3l1.2,1.4l0.5,2.3l0.2-0.1l1,0.7l1.3-0.3l1.1,2L42.6,53.5z
		 M80.1,38.6l0.3,0.2c0.5,0.5,0.8,0.9,1.2,1.2l0.2-0.4l-1.6-1H80.1z M3.8,39.5l1,0.5l-0.2-1l-0.2,0l-0.3-0.1L4.2,39l-0.5,0.3
		L3.8,39.5z M36.9,31.7L36.9,31.7l0.7-0.3l0.4-1.1l0.3-2.7l0.8-1.4L39,25.9l-0.8,1l-0.6,0.6l-0.3,0.7l0.3,1.6L36.9,31.7z M84.9,29.6
		l1.5,0.8L86,29.6H84.9z M39.1,30.2h0.6c-0.2-0.3-0.3-0.6-0.5-0.9L39.1,30.2z M22.5,24.5l0.8,1.7l0.3-0.6h0.8l-0.9-1L23.1,24l0,0.2
		L22.5,24.5z M21.8,26.1L21.8,26.1l0.4-1.3l0,0l-0.3,0.6L21.8,26.1z M33,23.9l0,0.9l0.7-1.4L33,23.9z M36.2,21.6l-1.1,0.6l-0.4,0.3
		l1-0.4l0.8-0.6L36.2,21.6z M47.1,18.1l1.2,1v-0.3l-1-0.8v-0.4l-0.2,0.2L47.1,18.1z M60.1,18.9l0.4,0.1l0.4-0.8L60,18.7L60.1,18.9z"
		/>
</g>
<g id="Слой_6" display="none">
	<g display="inline">
		<g>
			<path fill="#222222" d="M68.4,42.2l0.4-0.6l-2.3-3.6l0.1-0.8l-0.7-0.8l0.1-2.2l0.2-1.3L65,31.5h-0.8l-0.3-0.2l0.1-0.4l0.8-1.5
				l0.6-0.5l1.4-0.7v-2.1l-1-3.3l-1.2-2.4l-0.6-3.2l-0.6-0.8l-1.3-0.8l-1.2-1l-1,0.5l-1.2,0.2l-3.2,0.2c0-0.4,0.1-0.9,0.1-1.3
				C55.4,8.1,50.7,3,45,3c-5.5,0-10,4.7-10.4,10.5l-1.5,0.9l-1.4,0.5l-0.1,0.1c0,0-0.7,1.1-1,1.5c-0.3,0.1-1.4,0.3-2.4,0.5l-2.9,1.1
				l-1.6,0.8L21,18.4l1.4,2.6h-0.8l0.7,3.9L21.9,26L21,27l0.5,1.1l1.2,1.3l0.4,1l-0.3,1.2l0.9,2v0.6l-1.1,1.6l0.9,1.9l0.4,0.6
				l0.7,0.8l0.1,1.2l-1.1,3.1l1.5-0.2l0.5-0.8l0.1,0l0.7,1.3l1.9,0.8l0.5,0.3l1.4,0.4l0.8-0.2l0.2,0.3L31,46L30,46.8l1.9,1.7
				l0.4,0.8h1l0.7-0.4l1.5-0.3l-0.9-1.4l0.7,0.2l0.9,0.9l1.3,0.1l0.1,0l0,0.6l1.2,1.8l1-0.7l1.2,0.6l1.2,0.2v1l0.8,0.9l0.3,0.6
				l0.5,0.6v1.4l1.6-0.8l0.6-0.6l0.4-0.1l0.5-0.4l1.1,1l0.2,0.1l0.1,2.3l1.3-0.7l0.9,0.9l0.2-0.9c0.1-0.3,0.2-0.7,0.2-1
				c0.1-0.1,0.3-0.2,0.4-0.3l1.2-0.2l0.8-0.2l1.6,0.9l0.3-0.9l0.7-0.3l1.4-0.1l1.7,0.4l0.5,0.8l1.1,0.5l1.6,0.3l1,0.4l2,0l-1.7-1.8
				v-1l-0.5-1l0.4-1.3l1.1-1.6l3.2-4.2l0.9-0.3l0.6-0.8v-1.4L68.4,42.2z M45,4c5.2,0,9.4,4.6,9.4,10.3c0,6.6-7.6,16.8-9.4,19.2
				c-1.8-2.3-9.4-12.6-9.4-19.2C35.6,8.6,39.9,4,45,4z M68,44.2l-0.2,0.3l-0.9,0.3l-3.4,4.4l-1.1,1.7l-0.6,1.9l0.5,1.1v1.2l0.1,0.1
				l-1.7-0.4l-0.8-0.4l-0.6-0.9L57.1,53l-1.6,0.1l-1.4,0.5L54,53.8l-0.9-0.5L52,53.6l-1.2,0.2l-0.1,0c-1,0.5-1,0.9-1,1
				c0,0,0,0,0,0.1l-0.1-0.1l-0.6,0.3l0-1.2l-0.5-0.3L46.7,52l-0.9,0.9l-0.5,0.2l-0.5,0.6l-0.1,0v-0.2L44,52.9l-0.3-0.6l-0.7-0.8
				v-1.4l-1.8-0.3l-1.7-0.9l-0.7,0.5l-0.5-0.7l0.2-2.3l-1.5,1l-0.6,0l-0.8-0.8l-2.2-0.6l-0.3,1.2l0.5,0.8l-0.2,0L33,48.3H33
				l-0.2-0.4l-1.2-1.1l0.2-0.2l0.4-1.3L31.3,44l-1.2,0.3l-1-0.3l-0.5-0.3L27,43.1l-0.8-1.6l-0.9,0.1l0.4-1l-0.1-1.8l-0.9-1l-0.3-0.5
				l-0.6-1.3l0.9-1.4v-1.1l-0.8-2l0.3-1.2l-0.5-1.4l-1.2-1.3l-0.2-0.4l0.6-0.7l0.7-1.5l-0.5-2.8l1.2,1.2v-2.2l0.5-0.5l-0.9-0.8
				l0.2,0l1.9-0.9l2.7-1.1c2.6-0.4,2.8-0.6,2.9-0.8c0.2-0.2,0.7-1.1,0.9-1.4l1.1-0.4l1.1-0.6c0.3,7.8,9.6,19.3,10,19.8L45,35
				l0.4-0.5c0.4-0.5,8.3-10.3,9.8-18l3.4-0.3l1.3-0.2l0.7-0.3l0.8,0.6l1.1,0.7l0.4,0.6l0.6,3l1.3,2.6l0.9,3v1.3L64.9,28L64,28.7
				l-1,1.8l-0.3,1.2l1.2,0.7h0.7l0.5,0.6L65,33.9l-0.1,2.8l0.7,0.7l-0.1,0.7l1.5,2.3l0.7,1.1l-0.4,0.6l0.8,1.2V44.2z M48.6,12.7
				c0-2-1.6-3.6-3.5-3.6c-2,0-3.5,1.6-3.5,3.6c0,2,1.6,3.6,3.5,3.6C47,16.3,48.6,14.7,48.6,12.7z M42.5,12.7c0-1.4,1.1-2.6,2.5-2.6
				c1.4,0,2.5,1.2,2.5,2.6c0,1.4-1.1,2.6-2.5,2.6C43.6,15.3,42.5,14.1,42.5,12.7z"/>
		</g>
	</g>
</g>
<g id="Слой_7" display="none">
	<g display="inline">
		<g>
			<path fill="#222222" d="M74.7,43H60.3c-4.7,0-7.7-2.5-10.8-6c1.4-2.3,6.2-3.6,10.3-3.6c3.4,2.2,8.3,4,10.7,4.2v4.8
				c0,0.3,0.2,0.5,0.5,0.5s0.5-0.2,0.5-0.5v-5.2c0-0.3-0.2-0.5-0.5-0.5c-1.8,0-7.1-1.8-10.7-4.2c-0.1-0.1-0.2-0.1-0.3-0.1
				c-3.5,0-9.1,1-11.1,3.8c-0.4-0.5-0.8-0.9-1.2-1.4c-3.4-4-7.2-8.4-13.6-11.8c-1.3-0.7-3.1-1.5-5.1-2.5c-1-0.5-1.2-1.4-1-2.1
				c0.1-0.7,0.7-1.4,1.8-1.4c1.6,0,2.8-1.3,2.8-2.8v-1.3c0-1.6-1.3-2.8-2.8-2.8H15.3c-1.6,0-2.8,1.3-2.8,2.8v1.8
				c0,2.2,0.4,4.5,1,6.2c0.1,0.3,0.2,0.5,0.4,0.7c0,0.1,0,0.2,0.1,0.2c2.5,2.8,4,16.2,4,27.6c0,0.3,0.2,0.5,0.5,0.5h5.6
				c0.3,0,0.5-0.2,0.5-0.5c0-10.6,3.8-14.7,9.5-17.5c0.1-0.1,0.2-0.2,0.3-0.3c4.5,3,7.4,6.6,10.1,9.9c3.8,4.6,7,8.5,13.1,8.5h17.2
				c1.6,0,2.8-1.3,2.8-2.8v-1.3C77.5,44.3,76.2,43,74.7,43z M23.6,48.9h-4.6c0-9.9-1.2-21.4-3.3-26.2c3.2,1.4,11.2,4.7,15.4,6.9
				c0.8,0.4,1.6,0.9,2.4,1.4C28.5,33.6,23.8,37.6,23.6,48.9z M76.5,47.2c0,1-0.8,1.8-1.8,1.8H57.5c-5.6,0-8.6-3.6-12.3-8.2
				c-3.3-4-7-8.6-13.5-12c-4.6-2.4-13.6-6.2-16.2-7.3c-0.5-0.2-0.8-0.6-1-1c-0.6-1.6-1-3.8-1-5.9v-1.8c0-1,0.8-1.8,1.8-1.8h14.3
				c1,0,1.8,0.8,1.8,1.8v1.3c0,1-0.8,1.8-1.8,1.8c-1.6,0-2.5,1.1-2.8,2.2c-0.2,1.1,0.1,2.5,1.6,3.2c2,1,3.8,1.8,5.1,2.5
				c6.3,3.3,10,7.7,13.4,11.6C50.8,40,54.2,44,60.3,44h14.4c1,0,1.8,0.8,1.8,1.8V47.2z"/>
		</g>
	</g>
</g>
<g id="Слой_8" display="none">
	<g display="inline">
		<g>
			<path fill-rule="evenodd" clip-rule="evenodd" fill="#222222" d="M44,26.9V11.5c0-1.1-0.9-2-2-2H15c-1.1,0-2,0.9-2,2v15.4
				c0,1.1,0.9,2,2,2H42C43.1,29,44,28.1,44,26.9z M14,26.9V11.5c0-0.6,0.5-1,1-1H42c0.6,0,1,0.5,1,1v15.4c0,0.6-0.5,1-1,1H15
				C14.5,28,14,27.5,14,26.9z M58.2,31H31.3c-1.1,0-2,0.9-2,2v15.4c0,1.1,0.9,2,2,2h26.9c1.1,0,2-0.9,2-2V33.1
				C60.3,31.9,59.3,31,58.2,31z M59.3,48.5c0,0.6-0.5,1-1,1H31.3c-0.6,0-1-0.5-1-1V33.1c0-0.6,0.5-1,1-1h26.9c0.6,0,1,0.5,1,1V48.5z
				 M75,9.5H48c-1.1,0-2,0.9-2,2v15.4c0,1.1,0.9,2,2,2H75c1.1,0,2-0.9,2-2V11.5C77,10.4,76.1,9.5,75,9.5z M76,26.9c0,0.6-0.5,1-1,1
				H48c-0.6,0-1-0.5-1-1V11.5c0-0.6,0.5-1,1-1H75c0.6,0,1,0.5,1,1V26.9z M41.9,39.6h-0.7c-0.1,0-0.1,0-0.1,0.1l0,0.2L41,39.8
				c-0.2-0.2-0.5-0.3-0.9-0.3c-0.8,0-1.5,0.6-1.6,1.5c-0.1,0.4,0,0.8,0.3,1.1c0.2,0.3,0.5,0.4,0.9,0.4c0.6,0,1-0.4,1-0.4l0,0.2
				c0,0.1,0,0.1,0.1,0.1h0.6c0.1,0,0.2-0.1,0.2-0.2l0.4-2.5C42.1,39.6,42,39.6,41.9,39.6z M40.1,41.7c-0.2,0-0.4-0.1-0.5-0.2
				c-0.1-0.1-0.1-0.3-0.1-0.5c0.1-0.4,0.4-0.7,0.8-0.7c0.2,0,0.4,0.1,0.5,0.2c0.1,0.1,0.2,0.3,0.1,0.5
				C40.8,41.4,40.5,41.7,40.1,41.7z M45.8,39.6H45c-0.1,0-0.1,0-0.2,0.1l-1,1.5l-0.4-1.4c0-0.1-0.1-0.2-0.2-0.2h-0.7
				c-0.1,0-0.1,0.1-0.1,0.2l0.8,2.4l-0.7,1.1c-0.1,0.1,0,0.2,0.1,0.2h0.7c0.1,0,0.1,0,0.2-0.1l2.4-3.5
				C45.9,39.7,45.9,39.6,45.8,39.6z M38.5,38.6c-0.2-0.3-0.6-0.4-1.1-0.4h-1.5c-0.1,0-0.2,0.1-0.2,0.2l-0.6,3.9c0,0.1,0,0.1,0.1,0.1
				h0.7c0.1,0,0.2-0.1,0.2-0.2l0.2-1.1c0-0.1,0.1-0.2,0.2-0.2H37c1,0,1.6-0.5,1.7-1.4C38.8,39.1,38.7,38.8,38.5,38.6z M37.6,39.6
				c-0.1,0.5-0.5,0.5-0.9,0.5h-0.2l0.2-1c0-0.1,0.1-0.1,0.1-0.1h0.1c0.3,0,0.5,0,0.7,0.2C37.6,39.3,37.6,39.4,37.6,39.6z M52.6,39.6
				h-0.7c-0.1,0-0.1,0-0.1,0.1l0,0.2l-0.1-0.1c-0.2-0.2-0.5-0.3-0.9-0.3c-0.8,0-1.5,0.6-1.6,1.5c-0.1,0.4,0,0.8,0.3,1.1
				c0.2,0.3,0.5,0.4,0.9,0.4c0.6,0,1-0.4,1-0.4l0,0.2c0,0.1,0,0.1,0.1,0.1h0.6c0.1,0,0.2-0.1,0.2-0.2l0.4-2.5
				C52.8,39.6,52.7,39.6,52.6,39.6z M50.8,41.7c-0.2,0-0.4-0.1-0.5-0.2c-0.1-0.1-0.1-0.3-0.1-0.5c0.1-0.4,0.4-0.7,0.8-0.7
				c0.2,0,0.4,0.1,0.5,0.2c0.1,0.1,0.2,0.3,0.1,0.5C51.6,41.4,51.2,41.7,50.8,41.7z M49.2,38.6c-0.2-0.3-0.6-0.4-1.1-0.4h-1.5
				c-0.1,0-0.2,0.1-0.2,0.2l-0.6,3.9c0,0.1,0,0.1,0.1,0.1h0.8c0.1,0,0.1-0.1,0.1-0.1l0.2-1.1c0-0.1,0.1-0.2,0.2-0.2h0.5
				c1,0,1.6-0.5,1.7-1.4C49.5,39.1,49.4,38.8,49.2,38.6z M48.3,39.6c-0.1,0.5-0.5,0.5-0.9,0.5h-0.2l0.2-1c0-0.1,0.1-0.1,0.1-0.1h0.1
				c0.3,0,0.5,0,0.7,0.2C48.3,39.3,48.4,39.4,48.3,39.6z M54.3,38.2h-0.7c-0.1,0-0.1,0-0.1,0.1l-0.6,4c0,0.1,0,0.1,0.1,0.1h0.6
				c0.1,0,0.2-0.1,0.2-0.2l0.6-3.9C54.5,38.2,54.4,38.2,54.3,38.2z M26.9,16.8L26,21.7h1.4l0.8-4.9H26.9z M24.9,16.8l-1.3,3.4
				l-0.2-0.7l0,0L23,17.2c0,0-0.1-0.4-0.6-0.4h-2.1l0,0.1c0,0,0,0,0,0c0,0,0,0,0,0c0,0,0,0,0.1,0c0,0,0,0,0.1,0c0,0,0.1,0,0.1,0
				c0,0,0,0,0.1,0c0.1,0,0.1,0,0.2,0.1c0,0,0,0,0.1,0c0.1,0,0.1,0.1,0.2,0.1c0,0,0.1,0,0.1,0c0.1,0,0.1,0.1,0.2,0.1
				c0,0,0.1,0,0.1,0.1c0,0,0.1,0,0.1,0l1.2,4.2h1.4l2.2-4.9H24.9z M34.6,16.8c-0.5,0-0.6,0.4-0.6,0.4l-2,4.5h1.4l0.3-0.7h1.7
				l0.2,0.7h1.2l-1.1-4.9H34.6z M34.1,19.9l0.7-1.8l0.4,1.8H34.1z M30.2,18.1c0-0.6,1.3-0.5,1.9-0.2l0.2-1c0,0-0.6-0.2-1.2-0.2
				c-0.7,0-2.3,0.3-2.3,1.6c0,1.3,1.9,1.3,1.9,1.9s-1.7,0.5-2.2,0.1l-0.2,1.1c0,0,0.6,0.3,1.5,0.3c0.9,0,2.3-0.4,2.3-1.7
				C32.1,18.8,30.2,18.7,30.2,18.1z M56.9,19L56.9,19L56.9,19L56.9,19l0.1-0.1l0,0l0,0l0,0l0,0l0,0l0.1,0l0.1,0l0.1,0l0.1,0h0.1l0,0
				l0,0l0,0l0,0l0,0l0,0l0,0l0,0l0,0l0,0l0,0l0,0l0.1-0.6l0,0l0,0l0,0l0,0l0,0l0,0l0,0l0,0l0,0l-0.1,0l-0.1,0l-0.1,0l-0.1,0l-0.1,0
				l-0.1,0h-0.1l-0.2,0l-0.1,0l-0.1,0l-0.1,0l-0.1,0l-0.1,0l-0.1,0l-0.1,0l-0.1,0.1l-0.1,0.1l0,0.1l0,0.1l0,0.1l0,0.1l0,0.1l0,0.1
				l0,0.2l0,0.1l0,0.1l0.1,0.1l0.1,0.1l0.1,0.1l0.1,0.1l0.1,0l0.1,0l0.1,0l0.1,0l0.1,0l0.1,0l0,0l0,0.1l0,0.1l0,0l0,0l0,0l0,0l0,0
				l0,0l-0.1,0l-0.1,0l-0.1,0h-0.1l-0.1,0l-0.1,0l-0.1,0l-0.1,0l-0.1,0l-0.1,0l-0.1,0l-0.1,0l-0.1,0l0,0l0,0l0,0l0,0l0,0l-0.1,0.5
				l0,0l0,0l0,0l0,0l0,0l0,0l0,0l0.1,0l0.1,0l0.1,0l0.1,0l0.1,0l0.1,0h0.1l0.1,0h0.1l0.1,0l0.1,0l0.1,0l0.1,0l0.1,0l0.1,0l0.1,0
				l0.1,0l0.1,0l0.1-0.1l0.1-0.1l0.1-0.1l0.1-0.1l0-0.1l0-0.1l0-0.1l0-0.2l0-0.1l0-0.1l0-0.1l-0.1-0.1l-0.1-0.1l-0.1-0.1l-0.1,0
				l-0.1,0l-0.1,0l-0.1,0l-0.1,0l-0.1,0l-0.1,0l-0.1,0l-0.1,0l0,0l0,0L56.9,19L56.9,19L56.9,19L56.9,19z M59.4,20.3L59.4,20.3
				L59.4,20.3L59.4,20.3l-0.1,0l-0.1,0l-0.1,0l-0.1,0l-0.1,0l-0.1,0l0,0l0,0l0,0l0,0l0,0l0.3-1.4l0.5,0l0.1-0.6h-0.4l0.1-0.6h-0.7
				l-0.5,2.7l0,0.1l0,0.1v0.1l0,0.1l0,0l0,0l0,0l0,0l0,0l0,0l0,0l0.1,0l0.1,0l0.1,0l0.1,0l0.1,0h0.2l0,0l0,0l0,0l0,0l0,0l0,0l0,0
				l0,0l0,0l0,0l0,0l0,0l0,0l0,0l0,0l0,0L59.4,20.3L59.4,20.3L59.4,20.3z M61.7,20.2L61.7,20.2l-0.1,0.1l-0.1,0l-0.1,0l-0.1,0
				l-0.1,0l-0.1,0l-0.1,0h-0.1l-0.1,0l-0.1,0l-0.1,0l-0.1,0l-0.1,0l-0.1,0l-0.1,0l-0.1,0l0,0l0,0l0,0l0,0l0,0l0,0l0,0l0,0l0,0l0,0
				l0,0l0,0l0,0H60l0.1-0.5h0.2l0,0l0-0.1l0,0l0,0l0,0l0,0l0,0l0,0l0,0l0,0l0,0l0,0l0,0l0,0l0,0l0,0l0,0l0,0l0,0l0,0l0,0l0,0l0,0
				l0,0l0,0l0,0l0,0l0,0l0,0l0,0l0,0.1l0,0.1l0,0.1h-1l-0.1,0.5l0,0H62l0-0.2l0-0.2l0-0.2l0-0.2l0-0.1l0-0.1l-0.1-0.1l-0.1-0.1
				l-0.1-0.1l-0.1-0.1l-0.1-0.1l-0.1,0l-0.1,0l-0.1,0l-0.1,0l-0.1,0l-0.1,0l-0.2,0l-0.2,0l-0.2,0l-0.2,0.1l-0.1,0.1L60,18.5
				l-0.1,0.1l-0.1,0.1l-0.1,0.1l-0.1,0.1l0,0.1l0,0.1l0,0.1l0,0.1l0,0.1l0,0.1l0,0.2l0,0.2l0,0.2l0,0.1l0.1,0.1l0.1,0.1l0.1,0.1
				l0.1,0.1l0.1,0.1l0.1,0.1l0.1,0l0.1,0l0.1,0l0.1,0l0.1,0l0.1,0H61l0.1,0h0.1l0.1,0l0.1,0l0.1,0l0.1,0l0,0l0,0l0,0l0,0l0,0l0,0
				l0,0l0,0l0,0l0.1-0.6L61.7,20.2L61.7,20.2z M66.4,18.3L66.4,18.3L66.4,18.3l0.1,0l0,0l0.1-0.7l0,0l0,0l0,0l0,0l0,0l0,0l-0.1,0
				l-0.1,0l-0.1,0l-0.1,0l-0.1,0l-0.1,0l-0.1,0l-0.1,0l-0.1,0l-0.1,0l-0.1,0l-0.1,0l-0.1,0l-0.1,0l-0.1,0l-0.1,0l-0.1,0l-0.1,0
				l-0.1,0l-0.1,0l-0.1,0l-0.1,0l-0.1,0l-0.1,0l-0.1,0l-0.1,0L64.4,18l-0.1,0.1l-0.1,0.1l0,0.1l0,0.1l0,0.1l0,0.1l0,0.1l0,0.1l0,0.1
				l0,0.1l0,0.1l0,0.1l0,0.1l0,0.1l0,0.1l0,0.2l0,0.2l0,0.2l0,0.2l0,0.2l0.1,0.1l0.1,0.1l0.1,0.1l0.1,0.1l0.1,0.1l0.1,0.1l0.1,0.1
				l0.1,0l0.1,0l0.1,0l0.1,0l0.1,0l0.1,0l0.1,0l0.1,0l0.1,0l0.1,0l0.1,0l0.1,0l0,0l0,0l0,0l0,0l0,0l0,0l0,0l0,0l0.1-0.7l-0.1,0
				l-0.1,0l-0.1,0l-0.1,0l-0.1,0l-0.1,0l-0.1,0l-0.1,0l-0.1,0h-0.1h-0.1l-0.1,0l-0.1,0l0,0l0,0l0,0l-0.1,0l-0.1,0l-0.1,0l-0.1,0
				L64.9,20L64.8,20l0-0.1l0-0.1l0-0.1l0-0.1l0-0.1l0-0.1l0-0.1l0-0.1l0-0.1l0-0.1l0-0.2l0-0.1l0.1-0.1l0.1-0.1l0.1-0.1l0.1-0.1
				l0.1-0.1l0.1-0.1l0.1,0l0.1,0l0.1,0l0.1,0l0.1,0l0.1,0l0.1,0h0.1h0.1h0.1l0.1,0l0.1,0l0.1,0l0.1,0l0,0l0,0l0,0L66.4,18.3
				L66.4,18.3L66.4,18.3z M72.7,18.6L72.7,18.6L72.7,18.6L72.7,18.6l-0.1-0.1l0,0l0,0l0,0l0,0l0,0l-0.1,0l-0.1,0l-0.1,0l-0.1,0
				l-0.1,0l-0.1,0l-0.1,0l-0.1,0l-0.1,0l-0.1,0l-0.1,0l-0.1,0l-0.1,0.1l-0.1,0.1l-0.1,0.1l-0.1,0.1L71,18.7l-0.1,0.1l-0.1,0.1
				L70.8,19l-0.1,0.1l0,0.1l0,0.1l0,0.1l0,0.1l0,0.1l0,0.1l0,0.1l0,0.1l0,0.1l0.1,0.1l0.1,0.1l0.1,0.1l0.1,0.1l0.1,0.1l0.1,0.1
				l0.1,0l0.1,0l0.1,0h0.1l0.1,0l0,0l0.1,0l0.1,0l0,0l0,0l0,0l0,0l0,0l0,0l0,0l0,0l0,0l0,0l0,0v0l-0.1,0.3H73l0.6-3.2h-0.7
				L72.7,18.6z M72.5,19.5L72.5,19.5l0,0.1l0,0.1l0,0.1l0,0.1l0,0.1l0,0.1l0,0.1l0,0.1l0,0l0,0l0,0l-0.1,0l-0.1,0l-0.1,0l-0.1,0
				l-0.1,0l-0.1,0l-0.1,0l-0.1-0.1l-0.1-0.1L71.5,20l0-0.1l0-0.1l0-0.1l0-0.1l0-0.1l0-0.1l0-0.1l0-0.1l0-0.1l0-0.1l0-0.1l0-0.1l0,0
				l0,0l0.1,0l0.1,0l0.1,0l0.1,0l0.1,0l0.1,0l0.1,0l0,0l0,0l0,0l0,0l0,0l0,0l0,0l0,0.1l0,0.1l0,0.1l0,0.1L72.5,19.5L72.5,19.5z
				 M55.9,18.9L55.9,18.9l0-0.2l0-0.1l0-0.1l-0.1-0.1l-0.1-0.1l-0.1-0.1l-0.1,0l-0.1,0l-0.1,0l-0.1,0l-0.1,0l-0.1,0l-0.1,0l-0.1,0
				l-0.1,0l-0.1,0h-0.1h-0.1h-0.1l-0.1,0l-0.1,0l-0.1,0l-0.1,0l-0.1,0l-0.1,0l-0.1,0l-0.1,0l-0.1,0l-0.1,0l-0.1,0l-0.2,0.6l0,0l0,0
				l0,0l0.1,0l0.1,0l0.1,0l0.1,0l0.1,0l0.1,0l0.1,0l0.1,0l0.1,0l0.1,0h0.1l0.1,0l0.1,0l0.1,0l0.1,0l0.1,0l0,0l0,0l0,0l0,0l0,0.1l0,0
				l0,0.1l0,0l0,0h0l0,0l0,0l0,0h-0.1l-0.1,0l-0.1,0h-0.1h0l0,0l0,0l0,0l0,0l0,0l0,0l0,0l0,0l0,0l0,0l0,0l0,0l0,0l0,0h0l-0.1,0
				l-0.1,0l-0.1,0l-0.1,0l-0.1,0l-0.1,0l-0.1,0.1l-0.1,0.1l-0.1,0.1l-0.1,0.1l0,0.1l0,0.1l0,0.1l0,0.1l0,0.1l0,0.1v0.1l0,0.1l0,0.1
				l0,0.1l0,0.1l0,0.1l0,0.1l0,0.1l0,0l0,0l0.1,0l0.1,0l0.1,0l0.1,0l0.1,0l0.1,0l0.1,0l0.1,0l0.1,0l0.1,0l0.1,0l0.1,0l0.1,0l0.1,0
				l0.1,0l0.1,0l0.1,0l0.1,0l0.1,0l0,0l0,0l0,0l0,0l0,0.1l0,0.1l0,0.1h0.7l0.1-0.5L55.9,18.9L55.9,18.9z M55,19.8L55,19.8l0,0.2
				l0,0.1l0,0l0,0l0,0l0,0l0,0l0,0l0,0l0,0l0,0l0,0l0,0l-0.1,0l-0.1,0l-0.1,0l-0.1,0l-0.1,0l0,0l0,0l0,0l0,0l0,0l0,0l0-0.1l0-0.1
				l0,0l0,0l0,0l0,0l0,0l0,0l0,0l0,0l0,0l0,0l0,0l0,0l0,0l0,0l0,0l0,0l0,0l0,0l0,0l0,0l0,0l0,0l0,0l0,0h0h0l0,0l0,0L55,19.8L55,19.8
				L55,19.8L55,19.8L55,19.8z M52.2,17.6l-0.9,1.9l-0.1-1.9H50l-0.6,3.2h0.7l0.4-2.4h0h0h0l0,0.1l0,0.3l0,0.4l0,0.4l0,0.4l0,0.4
				l0,0.3l0,0.1h0.8l1.1-2.4h0l-0.5,2.4h0.7l0.6-3.2H52.2z M69,18.9L69,18.9l0-0.2l0-0.1l0-0.1l-0.1-0.1l-0.1-0.1l-0.1-0.1l-0.1,0
				l-0.1,0l-0.1,0l-0.1,0l-0.1,0l-0.1,0l-0.1,0l-0.1,0l-0.1,0l-0.1,0h-0.1h-0.1h-0.1l-0.1,0l-0.1,0l-0.1,0l-0.1,0l-0.1,0l-0.1,0
				l-0.1,0l-0.1,0l-0.1,0l-0.1,0l-0.1,0l-0.2,0.6l0,0l0,0l0,0l0.1,0l0.1,0l0.1,0l0.1,0l0.1,0l0.1,0l0.1,0l0.1,0l0.1,0l0.1,0h0.1
				l0.1,0l0.1,0l0.1,0l0.1,0l0.1,0l0,0l0,0l0,0l0,0l0,0.1l0,0l0,0.1l0,0l0,0h0l0,0l0,0l0,0H68l-0.1,0l-0.1,0h-0.1h0l0,0l0,0l0,0l0,0
				l0,0l0,0l0,0l0,0l0,0l0,0l0,0l0,0l0,0l0,0h0l-0.1,0l-0.1,0l-0.1,0l-0.1,0l-0.1,0l-0.1,0l-0.1,0.1l-0.1,0.1l-0.1,0.1l-0.1,0.1
				l0,0.1l0,0.1l0,0.1l0,0.1l0,0.1l0,0.1v0.1l0,0.1l0,0.1l0,0.1l0,0.1l0,0.1l0,0.1l0,0.1l0,0l0,0l0,0l0.1,0l0.1,0l0.1,0l0.1,0l0.1,0
				l0.1,0l0.1,0l0.1,0l0.1,0l0.1,0l0.1,0l0.1,0l0.1,0l0.1,0l0.1,0l0.1,0l0.1,0l0.1,0l0,0l0,0l0,0l0,0v0.1l0,0.1l0,0.1h0.7l0.1-0.5
				L69,18.9L69,18.9z M68.1,19.8L68.1,19.8l0,0.1l0,0.1l0,0l0,0l0,0l0,0l0,0l0,0l0,0l0,0l0,0l0,0l0,0l-0.1,0l-0.1,0l-0.1,0l-0.1,0
				l-0.1,0l0,0l0,0l0,0l0,0l0,0l0,0l0-0.1l0-0.1l0,0l0,0l0,0l0,0l0,0l0,0l0,0l0,0l0,0l0,0l0,0l0,0l0,0l0,0l0,0l0,0l0,0l0,0l0,0l0,0
				l0,0l0,0l0,0l0,0l0,0h0l0,0l0,0L68.1,19.8L68.1,19.8L68.1,19.8L68.1,19.8L68.1,19.8z M70.7,18.9L70.7,18.9L70.7,18.9L70.7,18.9
				l0.2-0.6l-0.1,0l-0.1,0l-0.1,0l-0.1,0l-0.1,0l-0.1,0l-0.1,0l0,0l0,0l0,0l0,0l0,0l0,0l0,0l0,0l0,0l0.1-0.4h-0.7l-0.5,2.6h0.7
				l0.3-1.4l0-0.1l0-0.1l0-0.1l0-0.1l0-0.1l0-0.1l0,0l0,0l0,0l0.1,0l0.1,0l0.1,0l0.1,0l0.1,0l0.1,0L70.7,18.9z M63.9,18.5L63.9,18.5
				L63.9,18.5l0.1-0.1l0,0l0,0l0,0l0,0l0,0h0l0,0l0,0l0,0h0l0,0l0,0h0l-0.1,0l-0.1,0l-0.1,0l-0.1,0l-0.1,0l-0.1,0l-0.1,0l0,0l0,0
				l0,0l0,0l0,0l0,0l0,0l0,0l0,0l0.1-0.4h-0.8l-0.5,2.6h0.7h0l0.3-1.4l0-0.1l0-0.1l0-0.1l0,0l0,0l0,0l0,0l0,0l0,0l0,0l0.1,0l0.1,0
				l0.1,0l0.1,0l0.1,0l0.1,0h0l0,0l0,0h0l0,0l0,0l0,0h0l0,0l0,0l0,0l0-0.1l0-0.1l0-0.1L63.9,18.5L63.9,18.5z"/>
		</g>
	</g>
</g>
</svg>
