<?xml version="1.0" encoding="utf-8"?>
<!-- Generator: Adobe Illustrator 18.0.0, SVG Export Plug-In . SVG Version: 6.00 Build 0)  -->
<!DOCTYPE svg PUBLIC "-//W3C//DTD SVG 1.1//EN" "http://www.w3.org/Graphics/SVG/1.1/DTD/svg11.dtd">
<svg version="1.1" id="Слой_1" xmlns="http://www.w3.org/2000/svg" xmlns:xlink="http://www.w3.org/1999/xlink" x="0px" y="0px"
	 width="13px" height="13px" viewBox="0 0 13 13" enable-background="new 0 0 13 13" xml:space="preserve">
<g>
	<g>
		<path fill="#282119" d="M12.8,12L9.2,8.4c1.6-2,1.5-5-0.4-6.9C7.9,0.5,6.6,0,5.2,0C3.8,0,2.5,0.5,1.5,1.5c-2,2-2,5.3,0,7.3
			c1,1,2.3,1.5,3.7,1.5c1.2,0,2.3-0.4,3.2-1.1l3.6,3.6c0.1,0.1,0.3,0.2,0.4,0.2c0.2,0,0.3-0.1,0.4-0.2C13.1,12.6,13.1,12.2,12.8,12z
			 M2.4,8c-1.6-1.6-1.6-4.1,0-5.6c0.8-0.8,1.8-1.2,2.8-1.2c1.1,0,2.1,0.4,2.8,1.2C9.6,3.9,9.6,6.4,8,8C7.3,8.7,6.2,9.2,5.2,9.2
			C4.1,9.2,3.1,8.7,2.4,8z"/>
	</g>
</g>
</svg>
