<?xml version="1.0" encoding="utf-8"?>
<!-- Generator: Adobe Illustrator 18.0.0, SVG Export Plug-In . SVG Version: 6.00 Build 0)  -->
<!DOCTYPE svg PUBLIC "-//W3C//DTD SVG 1.1//EN" "http://www.w3.org/Graphics/SVG/1.1/DTD/svg11.dtd">
<svg version="1.1" id="Слой_1" xmlns="http://www.w3.org/2000/svg" xmlns:xlink="http://www.w3.org/1999/xlink" x="0px" y="0px"
	 width="44px" height="36px" viewBox="0 0 44 36" enable-background="new 0 0 44 36" xml:space="preserve">
<g>
	<g>
		<path fill="#282119" d="M43.9,15.9l-4.3-9.3c0,0,0,0,0,0c0-0.1-0.1-0.2-0.1-0.3c-0.1-0.1-0.1-0.2-0.3-0.3c0,0-0.1,0-0.1,0
			c-0.3-0.2-0.7-0.4-0.8-0.4L20.4,0C20.2,0,20,0,19.8,0.1L5.7,7.4C5.1,7.7,4.3,8.2,4.1,8.6C4,8.7,3.9,8.8,3.9,8.9
			C3.8,9,3.7,9.1,3.7,9.3L0.1,18c-0.2,0.4-0.1,0.8,0,1.1c0.2,0.4,0.5,0.6,0.9,0.8l2.8,0.9v7.7c0,0.3,0.2,0.6,0.5,0.6L26.4,36
			c0.1,0,0.1,0,0.2,0c0.2,0,0.3-0.1,0.5-0.2l12.3-11c0.1-0.1,0.2-0.3,0.2-0.5v-8.6l3.5,1.2c0.1,0,0.2,0,0.2,0c0.2,0,0.4-0.1,0.5-0.2
			C44,16.5,44,16.2,43.9,15.9z M6,8l14.1-7.3c0,0,0.1,0,0.1,0l17.9,5.5c0,0,0.1,0,0.1,0l-12.4,7.7c-0.6-0.1-3.4-0.9-6.9-1.8L5.4,8.4
			c0,0-0.1,0-0.1,0C5.5,8.2,5.8,8.1,6,8z M0.7,18.9c-0.1-0.2-0.1-0.4,0-0.6l3.6-8.8c0,0,0,0,0,0h0.2V9.2c0.1-0.1,0.1-0.1,0.2-0.1
			c6.7,1.8,11.3,3,14.5,3.8l5.9,1.6c0.2,0.1,0.4,0.2,0.5,0.4c0.1,0.2,0.1,0.4,0.1,0.6l-2.8,9.7c-0.1,0.4-0.6,0.7-1,0.5L1.2,19.3
			C1,19.2,0.8,19.1,0.7,18.9z M4.5,21l17.1,5.3c0.1,0,0.3,0.1,0.4,0.1c0.6,0,1.2-0.4,1.4-1l2.3-8l0.4,17.9L4.5,28.5V21z M26.8,35.2
			l-0.5-20.8l12.6-7.9c0,0,0.1,0.1,0.1,0.1l0,17.7L26.8,35.2z M43.3,16.3c0,0-0.1,0-0.1,0l-3.6-1.2c0,0,0,0-0.1,0V8l3.8,8.1
			C43.4,16.2,43.3,16.3,43.3,16.3z"/>
	</g>
</g>
</svg>
