<?xml version="1.0" encoding="utf-8"?>
<!-- Generator: Adobe Illustrator 18.0.0, SVG Export Plug-In . SVG Version: 6.00 Build 0)  -->
<!DOCTYPE svg PUBLIC "-//W3C//DTD SVG 1.1//EN" "http://www.w3.org/Graphics/SVG/1.1/DTD/svg11.dtd">
<svg version="1.1" id="Слой_1" xmlns="http://www.w3.org/2000/svg" xmlns:xlink="http://www.w3.org/1999/xlink" x="0px" y="0px"
	 width="41px" height="33px" viewBox="0 0 41 33" enable-background="new 0 0 41 33" xml:space="preserve">
<g>
	<g>
		<path fill="#282119" d="M40.8,17.9l-2.6-1.7l-4.3-5.1c-0.1-0.1-0.2-0.1-0.3-0.1H27V5.5c0-0.2-0.2-0.4-0.4-0.4H14.4
			C13.5,2.2,10.7,0,7.4,0C3.3,0,0,3.2,0,7.1c0,2.6,1.4,4.8,3.5,6.1v17.7c0,0.2,0.2,0.4,0.4,0.4h5.9c0,0,0.1,0,0.1,0
			c0.5,1,1.5,1.7,2.7,1.7c1.2,0,2.3-0.7,2.7-1.7c0,0,0.1,0,0.1,0h14.6c0.5,1,1.5,1.7,2.7,1.7c1.2,0,2.2-0.7,2.7-1.7h5.2
			c0.2,0,0.4-0.2,0.4-0.4V18.2C41,18.1,40.9,18,40.8,17.9z M14.6,5.8h11.7v21.4h-22V13.6c1,0.4,2,0.7,3.1,0.7c4.1,0,7.4-3.2,7.4-7.2
			C14.7,6.7,14.7,6.2,14.6,5.8z M0.7,7.1c0-3.6,3-6.4,6.6-6.4S14,3.6,14,7.1c0,3.6-3,6.4-6.6,6.4S0.7,10.7,0.7,7.1z M9.6,30.1
			c0,0.2,0,0.3,0.1,0.5H4.2v-2.7h6.5C10,28.4,9.6,29.2,9.6,30.1z M12.6,32.3c-1.2,0-2.3-1-2.3-2.2c0-1.2,1-2.2,2.3-2.2
			c1.2,0,2.3,1,2.3,2.2C14.9,31.3,13.9,32.3,12.6,32.3z M29.8,30.6H15.6c0-0.2,0.1-0.3,0.1-0.5c0-0.9-0.4-1.7-1.1-2.2h16.3
			c-0.6,0.5-1.1,1.3-1.1,2.2C29.8,30.3,29.8,30.4,29.8,30.6z M32.8,32.3c-1.2,0-2.3-1-2.3-2.2c0-1.2,1-2.2,2.3-2.2
			c1.2,0,2.3,1,2.3,2.2C35,31.3,34,32.3,32.8,32.3z M40.3,30.6h-4.6c0-0.2,0.1-0.3,0.1-0.5c0-0.9-0.4-1.7-1.1-2.2h5.6V30.6z
			 M40.3,27.2H27V11.8h6.5l4.3,5c0,0,0,0,0.1,0.1l2.5,1.6V27.2z M7.7,7.1V3.8c0-0.2-0.2-0.4-0.4-0.4C7.2,3.4,7,3.6,7,3.8v3H3.9
			C3.7,6.8,3.5,7,3.5,7.1s0.2,0.4,0.4,0.4h3.5C7.6,7.5,7.7,7.3,7.7,7.1z"/>
	</g>
</g>
</svg>
