<?xml version="1.0" encoding="utf-8"?>
<!-- Generator: Adobe Illustrator 18.0.0, SVG Export Plug-In . SVG Version: 6.00 Build 0)  -->
<!DOCTYPE svg PUBLIC "-//W3C//DTD SVG 1.1//EN" "http://www.w3.org/Graphics/SVG/1.1/DTD/svg11.dtd">
<svg version="1.1" id="Слой_1" xmlns="http://www.w3.org/2000/svg" xmlns:xlink="http://www.w3.org/1999/xlink" x="0px" y="0px"
	 width="22.5px" height="18.2px" viewBox="0 0 22.5 18.2" enable-background="new 0 0 22.5 18.2" xml:space="preserve">
<path fill="#626262" d="M22.5,2.2L22.5,2.2L22.5,2.2 M15.6,0C13.1,0,11,2.1,11,4.6c0,0.4,0,0.7,0.1,1c-3.8-0.2-7.3-2-9.5-4.8
	C1.2,1.5,0.9,2.3,0.9,3.2c0,1.6,0.8,3,2.1,3.8C2.2,7,1.5,6.7,0.9,6.4c0,0,0,0,0,0.1c0,2.2,1.6,4.1,3.7,4.5c-0.4,0.1-0.8,0.2-1.2,0.2
	c-0.3,0-0.6,0-0.9-0.1c0.6,1.8,2.3,3.2,4.3,3.2c-1.6,1.2-3.6,2-5.7,2c-0.4,0-0.7,0-1.1-0.1c2,1.3,4.5,2.1,7.1,2.1
	c8.5,0,13.2-7,13.2-13.1c0-0.2,0-0.4,0-0.6c0.9-0.6,1.7-1.5,2.3-2.4c-0.8,0.4-1.7,0.6-2.7,0.7c1-0.6,1.7-1.5,2-2.5
	C21,0.9,20,1.2,19,1.5C18.1,0.6,16.9,0,15.6,0"/>
</svg>
