<?xml version="1.0" encoding="utf-8"?>
<!-- Generator: Adobe Illustrator 18.0.0, SVG Export Plug-In . SVG Version: 6.00 Build 0)  -->
<!DOCTYPE svg PUBLIC "-//W3C//DTD SVG 1.1//EN" "http://www.w3.org/Graphics/SVG/1.1/DTD/svg11.dtd">
<svg version="1.1" id="Слой_1" xmlns="http://www.w3.org/2000/svg" xmlns:xlink="http://www.w3.org/1999/xlink" x="0px" y="0px"
	 width="21.7px" height="20.8px" viewBox="0 0 21.7 20.8" enable-background="new 0 0 21.7 20.8" xml:space="preserve">
<g>
	<g>
		<path fill-rule="evenodd" clip-rule="evenodd" fill="#626262" d="M13.2,0H7.7C7,0,6.3,0.1,5.4,0.3C4.6,0.4,3.8,0.9,3,1.5
			C1.9,2.6,1.3,3.8,1.3,5.2c0,1.1,0.4,2.1,1.2,2.9C3.3,9,4.4,9.4,5.8,9.4c0.3,0,0.6,0,0.9-0.1C6.7,9.5,6.6,9.7,6.5,9.9
			c-0.1,0.2-0.1,0.4-0.1,0.6c0,0.4,0.1,0.7,0.3,1c0.2,0.3,0.3,0.6,0.5,0.8c-0.6,0-1.4,0.1-2.4,0.2c-1,0.2-1.9,0.5-2.8,1
			c-0.8,0.5-1.3,1-1.6,1.6C0.2,15.8,0,16.4,0,16.9c0,1,0.5,1.9,1.4,2.7c0.9,0.8,2.4,1.2,4.2,1.2c2.3,0,4-0.6,5.2-1.6
			c1.2-1,1.7-2.2,1.7-3.5c0-0.9-0.2-1.7-0.6-2.3c-0.4-0.6-0.9-1.1-1.5-1.6l-0.9-0.8c-0.1-0.1-0.3-0.3-0.4-0.5
			C9,10.4,8.9,10.2,8.9,9.9c0-0.3,0.1-0.6,0.2-0.8c0.1-0.2,0.3-0.4,0.4-0.6c0.3-0.2,0.5-0.5,0.8-0.7C10.6,7.6,10.8,7.3,11,7
			c0.4-0.6,0.6-1.4,0.6-2.3c0-0.5-0.1-1-0.2-1.4c-0.1-0.4-0.3-0.7-0.5-1c-0.2-0.3-0.4-0.6-0.6-0.8C10.2,1.2,10,1.1,9.8,1h1.7L13.2,0
			z M10.2,14.9c0.4,0.5,0.7,1.1,0.7,1.8c0,0.9-0.3,1.6-1,2.1c-0.7,0.6-1.6,0.8-2.9,0.9c-1.4,0-2.5-0.3-3.4-1
			c-0.9-0.6-1.3-1.4-1.3-2.4c0-0.5,0.1-0.9,0.3-1.3c0.2-0.3,0.4-0.6,0.6-0.8C3.5,14,3.7,13.9,4,13.8c0.2-0.1,0.4-0.2,0.6-0.2
			c0.6-0.2,1.2-0.3,1.7-0.4c0.6-0.1,0.9-0.1,1.1-0.1c0.2,0,0.4,0,0.6,0C9,13.8,9.7,14.4,10.2,14.9z M9.3,6.9
			C9.2,7.2,9.1,7.6,8.9,7.9C8.4,8.4,7.8,8.7,7.1,8.7C6.5,8.7,6,8.5,5.6,8.2C5.1,7.8,4.8,7.4,4.5,6.9C3.9,5.8,3.6,4.8,3.6,3.8
			c0-0.7,0.2-1.4,0.6-2c0.5-0.6,1.1-0.9,1.8-0.9c0.6,0,1,0.2,1.5,0.5c0.4,0.3,0.8,0.8,1,1.3c0.5,1.1,0.8,2.2,0.8,3.3
			C9.4,6.2,9.3,6.5,9.3,6.9z M21.6,8.5L21.6,8.5l-2.8,0V5.6h-1.7v2.9h-2.9v1.6h0v0.1h2.8v2.9h1.7v-2.9h2.9L21.6,8.5L21.6,8.5z"/>
	</g>
</g>
</svg>
