<?xml version="1.0" encoding="utf-8"?>
<!-- Generator: Adobe Illustrator 18.0.0, SVG Export Plug-In . SVG Version: 6.00 Build 0)  -->
<!DOCTYPE svg PUBLIC "-//W3C//DTD SVG 1.1//EN" "http://www.w3.org/Graphics/SVG/1.1/DTD/svg11.dtd">
<svg version="1.1" id="Слой_1" xmlns="http://www.w3.org/2000/svg" xmlns:xlink="http://www.w3.org/1999/xlink" x="0px" y="0px"
	 width="17px" height="18px" viewBox="0 0 17 18" enable-background="new 0 0 17 18" xml:space="preserve">
<path fill="#282119" d="M1.4,9.4h8.4c0.2,0,0.4-0.2,0.4-0.4c0-0.2-0.2-0.4-0.4-0.4H1.4l1.2-1.2c0.2-0.2,0.2-0.4,0-0.6
	c-0.2-0.2-0.4-0.2-0.6,0l-2,1.9C0,8.8,0,8.9,0,9c0,0.1,0,0.2,0.1,0.3l2,1.9c0.1,0.1,0.2,0.1,0.3,0.1c0.1,0,0.2,0,0.3-0.1
	c0.2-0.2,0.2-0.4,0-0.6L1.4,9.4z M14.3,2.6C12.6,0.9,10.3,0,7.9,0C5.4,0,3.1,0.9,1.4,2.6c-0.2,0.2-0.2,0.4,0,0.6
	c0.2,0.2,0.4,0.2,0.6,0c1.6-1.5,3.7-2.4,5.9-2.4c2.2,0,4.3,0.8,5.9,2.4c1.6,1.5,2.4,3.6,2.4,5.8c0,2.2-0.9,4.2-2.4,5.8
	c-1.6,1.5-3.7,2.4-5.9,2.4c-2.2,0-4.3-0.8-5.9-2.4c-0.2-0.2-0.4-0.2-0.6,0c-0.2,0.2-0.2,0.4,0,0.6c1.7,1.7,4,2.6,6.5,2.6
	c2.4,0,4.7-0.9,6.5-2.6c1.7-1.7,2.7-4,2.7-6.4C17,6.6,16.1,4.3,14.3,2.6z"/>
</svg>
