<?xml version="1.0" encoding="utf-8"?>
<!-- Generator: Adobe Illustrator 18.0.0, SVG Export Plug-In . SVG Version: 6.00 Build 0)  -->
<!DOCTYPE svg PUBLIC "-//W3C//DTD SVG 1.1//EN" "http://www.w3.org/Graphics/SVG/1.1/DTD/svg11.dtd">
<svg version="1.1" id="Слой_1" xmlns="http://www.w3.org/2000/svg" xmlns:xlink="http://www.w3.org/1999/xlink" x="0px" y="0px"
	 width="16px" height="16px" viewBox="0 0 16 16" enable-background="new 0 0 16 16" xml:space="preserve">
<g>
	<g>
		<path fill="#282119" d="M8,8.8c1.7,0,3.1-1.5,3.1-3.4C11.1,3.5,9.7,2,8,2C6.3,2,4.9,3.5,4.9,5.4C4.9,7.2,6.3,8.8,8,8.8z M10.2,8.5
			c-0.1,0-0.1,0-0.2-0.1C9.5,8.9,8.8,9.2,8,9.2c-0.8,0-1.5-0.3-2-0.7c0,0-0.1,0-0.1,0C5,8.5,4,9.2,4,10.1v2.3C4,13.2,4.7,14,5.6,14
			h4.9c0.9,0,1.6-0.8,1.6-1.6v-2.3C12,9.2,11,8.5,10.2,8.5z"/>
	</g>
</g>
</svg>
